<?xml version="1.0" encoding="UTF-8"?>
<svg version="1.1" xmlns="http://www.w3.org/2000/svg" width="2000" height="2348">
<path d="M0 0 C14.24929955 10.92446299 21.67457671 26.7736005 30.09777832 42.2053833 C31.72059459 45.17164831 33.35640772 48.1307136 34.9921875 51.08984375 C37.34458515 55.34645517 39.69509703 59.6040844 42.04156494 63.8639679 C46.22011199 71.44943169 50.41734862 79.02438344 54.625 86.59375 C55.24052734 87.70105469 55.85605469 88.80835937 56.49023438 89.94921875 C58.34732208 93.28924847 60.2048264 96.62904611 62.0625 99.96875 C64.54222607 104.42677254 67.02147099 108.88506181 69.5 113.34375 C70.10755127 114.43655273 70.71510254 115.52935547 71.34106445 116.65527344 C74.72345261 122.74366101 78.09592317 128.83734543 81.45703125 134.9375 C81.82215317 135.60004791 82.18727509 136.26259583 82.5634613 136.94522095 C84.33468937 140.15978961 86.10468298 143.37502923 87.87280273 146.59130859 C88.82521851 148.3211499 88.82521851 148.3211499 89.796875 150.0859375 C90.35600586 151.10284668 90.91513672 152.11975586 91.49121094 153.16748047 C92.96738191 155.79917495 94.49548733 158.39032335 96.0625 160.96875 C100.67247944 160.3339086 104.80058901 159.13885639 109.1875 157.59765625 C110.61021798 157.10493776 112.03324729 156.61311754 113.45654297 156.12207031 C114.20498474 155.8628479 114.95342651 155.60362549 115.72454834 155.33654785 C189.62815989 129.88075224 268.4357584 118.32308098 582.93457031 160.27832031 C585.16523635 161.12306106 585.16523635 161.12306106 588.0625 160.96875 C588.46863525 160.23164795 588.87477051 159.4945459 589.29321289 158.73510742 C598.56550869 141.90982169 607.86574166 125.10053019 617.20361328 108.31152344 C620.32508348 102.69828862 623.44367131 97.08345279 626.5625 91.46875 C630.29937437 84.74140426 634.0367985 78.01436801 637.77734375 71.2890625 C638.69870117 69.63185181 638.69870117 69.63185181 639.63867188 67.94116211 C640.8750401 65.71767775 642.11201488 63.49453056 643.34960938 61.27172852 C646.33169267 55.90983346 649.3012243 50.54202289 652.23756409 45.15496826 C653.66436505 42.53743437 655.09509456 39.92205459 656.52566528 37.30657959 C657.20434058 36.06269111 657.88091831 34.81765532 658.55514526 33.5713501 C669.26304079 13.7791462 681.32769449 -2.02203699 703.0625 -10.03125 C703.91328125 -10.34964844 704.7640625 -10.66804687 705.640625 -10.99609375 C723.37641854 -16.49418975 743.44534597 -13.76696839 759.75 -5.46875 C777.07247439 3.97088654 788.22274692 19.72222354 793.9375 38.46875 C798.48762394 58.86305552 793.72195165 77.06554596 784.0625 94.96875 C782.96701998 97.0245116 781.87200024 99.08051851 780.77734375 101.13671875 C774.45347651 112.97499823 768.01413082 124.74719927 761.46289062 136.4609375 C758.59086623 141.60414437 755.73465924 146.75616144 752.875 151.90625 C751.57819498 154.24092433 750.28133827 156.57556984 748.984375 158.91015625 C748.65912842 159.49563736 748.33388184 160.08111847 747.9987793 160.68434143 C745.77633433 164.68470795 743.5524955 168.68429747 741.328125 172.68359375 C734.59626979 184.78941054 727.88073396 196.90404546 721.1875 209.03125 C720.83430695 209.67092712 720.48111389 210.31060425 720.11721802 210.96966553 C719.12195461 212.77249159 718.12727124 214.57563623 717.1328125 216.37890625 C716.56320801 217.41152588 715.99360352 218.44414551 715.40673828 219.50805664 C714.60145654 220.98216391 713.81369517 222.46635966 713.0625 223.96875 C714.13769897 224.36030273 714.13769897 224.36030273 715.23461914 224.75976562 C718.18734182 226.02212276 720.6419283 227.52651716 723.30859375 229.3125 C724.30366943 229.97660889 725.29874512 230.64071777 726.32397461 231.32495117 C727.37206299 232.03240479 728.42015137 232.7398584 729.5 233.46875 C730.58095947 234.19489502 731.66191895 234.92104004 732.77563477 235.66918945 C754.19644854 250.10554891 774.66506385 265.71155391 794.31542969 282.48046875 C796.12581799 284.02268886 797.94155158 285.55845236 799.7578125 287.09375 C810.54257549 296.23760091 810.54257549 296.23760091 815.38647461 301.29370117 C817.05830601 302.96455845 818.7959362 304.48643204 820.59765625 306.015625 C825.84208134 310.57628175 830.723045 315.48330161 835.625 320.40625 C836.53185547 321.30923828 837.43871094 322.21222656 838.37304688 323.14257812 C842.92382802 327.69995939 847.34212416 332.30872459 851.53588867 337.19702148 C853.76962494 339.78941299 856.10509877 342.27724567 858.4375 344.78125 C862.67560701 349.37434375 866.71850193 354.08145222 870.63671875 358.953125 C872.41609865 361.16517216 874.20880553 363.36081839 876.01953125 365.546875 C888.36672189 380.49557146 899.60570677 396.10678276 910.375 412.21875 C910.79129669 412.8400177 911.20759338 413.4612854 911.63650513 414.10137939 C917.7378587 423.22438297 923.48286989 432.51874987 929.0625 441.96875 C929.57063232 442.81646973 930.07876465 443.66418945 930.60229492 444.53759766 C970.41237073 511.0459033 995.29864659 586.21043913 1005.8125 662.84375 C1005.96407562 663.93246902 1005.96407562 663.93246902 1006.11871338 665.04318237 C1009.55467686 689.99060238 1010.50090398 714.9924932 1011.12695312 740.13470459 C1011.22946131 744.19214791 1011.33972091 748.24938099 1011.44921875 752.30664062 C1011.66099101 760.19383007 1011.86455582 768.08120141 1012.0625 775.96875 C1012.74014404 775.28748047 1013.41778809 774.60621094 1014.1159668 773.90429688 C1015.00968994 773.00775391 1015.90341309 772.11121094 1016.82421875 771.1875 C1017.70811279 770.29998047 1018.59200684 769.41246094 1019.50268555 768.49804688 C1022.89424864 765.14691729 1026.38109656 761.99668815 1030.0625 758.96875 C1030.97128906 758.22109375 1031.88007812 757.4734375 1032.81640625 756.703125 C1062.74148354 732.88291329 1101.34625729 716.10482939 1140.00390625 715.73046875 C1141.25901253 715.71577797 1141.25901253 715.71577797 1142.53947449 715.70079041 C1160.39148331 715.5348064 1177.65359661 715.52262774 1195.0625 719.96875 C1195.94695801 720.18305664 1196.83141602 720.39736328 1197.74267578 720.61816406 C1210.48278226 723.749072 1222.30259629 728.1832285 1234.0625 733.96875 C1235.12911865 734.48477783 1235.12911865 734.48477783 1236.21728516 735.01123047 C1252.20534701 742.81427772 1266.17729643 752.72780661 1279.0625 764.96875 C1280.4111155 766.12111175 1281.76491463 767.26744836 1283.125 768.40625 C1318.45771993 799.35828717 1336.18391832 847.30445758 1340.0625 892.96875 C1340.52876361 901.46017376 1340.465617 909.95945704 1340.4367218 918.46063232 C1340.4394697 920.93784895 1340.44352798 923.41506439 1340.44876546 925.892277 C1340.45707743 931.23102516 1340.45628745 936.56965034 1340.44703293 941.90838814 C1340.43330891 949.84765564 1340.43703897 957.78685181 1340.44399153 965.72612475 C1340.45586076 979.91257346 1340.45087592 994.09897743 1340.43871326 1008.28542363 C1340.42814454 1020.69830449 1340.42364191 1033.11117016 1340.42500877 1045.52405548 C1340.42513482 1046.76285969 1340.42513482 1046.76285969 1340.42526341 1048.02669025 C1340.4256157 1051.37977532 1340.42599973 1054.73286039 1340.42642899 1058.08594545 C1340.43038659 1089.48595575 1340.41771065 1120.88593923 1340.39690243 1152.28594186 C1340.37852861 1180.14327138 1340.37272262 1208.00057522 1340.37817383 1235.85791016 C1340.37852026 1237.647402 1340.37886636 1239.43689384 1340.37921212 1241.22638568 C1340.37946861 1242.5534654 1340.37946861 1242.5534654 1340.37973029 1243.90735481 C1340.38058392 1248.3615395 1340.3814077 1252.8157242 1340.38219929 1257.26990891 C1340.38243491 1258.5882166 1340.38243491 1258.5882166 1340.38267529 1259.93315676 C1340.38667043 1283.25954849 1340.38118306 1306.58593777 1340.372688 1329.912328 C1340.37178102 1332.4238849 1340.37087537 1334.93544179 1340.36997276 1337.44699869 C1340.36937166 1339.11286395 1340.36876304 1340.7787292 1340.36814686 1342.44459446 C1340.36393586 1354.02814737 1340.36334286 1365.61169543 1340.36525235 1377.19524886 C1340.36770129 1392.12442497 1340.3635752 1407.05357509 1340.34804235 1421.98274413 C1340.34002797 1429.86601184 1340.33736388 1437.7492363 1340.3426847 1445.63250655 C1340.34603693 1451.53537287 1340.33882537 1457.43819692 1340.32765963 1463.34105459 C1340.32475034 1465.71618032 1340.32513707 1468.09131309 1340.32930271 1470.46643695 C1340.35730353 1488.03768547 1340.05615089 1505.74261696 1335.875 1522.90625 C1335.55462769 1524.25710693 1335.55462769 1524.25710693 1335.2277832 1525.63525391 C1331.31074778 1541.59498633 1325.97618594 1556.56453735 1318.0625 1570.96875 C1317.74168457 1571.5673584 1317.42086914 1572.1659668 1317.09033203 1572.78271484 C1310.46478057 1585.128651 1302.70414309 1596.49109669 1293.1328125 1606.74609375 C1291.26624044 1608.75001734 1289.50633926 1610.80627915 1287.75 1612.90625 C1274.0251612 1628.50265773 1256.46750212 1640.5534873 1238.0625 1649.96875 C1237.38364746 1650.31776367 1236.70479492 1650.66677734 1236.00537109 1651.02636719 C1190.81202384 1673.96661597 1138.96950777 1676.30403635 1091.0625 1660.96875 C1090.36592285 1660.74880371 1089.6693457 1660.52885742 1088.95166016 1660.30224609 C1070.62472664 1654.38165752 1053.19565778 1644.8244057 1038.0625 1632.96875 C1037.20140625 1632.31648438 1036.3403125 1631.66421875 1035.453125 1630.9921875 C1030.466163 1627.13285066 1025.77374307 1622.97392483 1021.125 1618.71875 C1020.56868896 1618.21102051 1020.01237793 1617.70329102 1019.43920898 1617.18017578 C1016.66600329 1614.60648435 1014.2789873 1612.0263679 1012.0625 1608.96875 C1012.05219254 1609.9162764 1012.04188507 1610.8638028 1012.03126526 1611.84004211 C1011.93267697 1620.85517145 1011.82987846 1629.8702447 1011.72316074 1638.88528156 C1011.66845177 1643.5178205 1011.61512708 1648.150366 1011.56518555 1652.78295898 C1011.51675941 1657.26991866 1011.4644106 1661.75681828 1011.40955925 1666.24370384 C1011.38948317 1667.93892062 1011.37072232 1669.6341536 1011.35342598 1671.32940102 C1011.26079318 1680.31861582 1011.05436244 1689.28835454 1010.59033203 1698.2668457 C1010.55030343 1699.0459068 1010.51027483 1699.8249679 1010.46903324 1700.62763691 C1010.12734431 1706.76288316 1009.4433123 1712.78998032 1008.375 1718.84375 C1008.20129883 1719.84567383 1008.02759766 1720.84759766 1007.84863281 1721.87988281 C1000.4341959 1762.62716089 981.32808026 1797.06253054 953.0625 1826.96875 C952.25941406 1827.82597656 951.45632813 1828.68320313 950.62890625 1829.56640625 C916.18906518 1865.25037951 866.02677593 1884.33112844 817.0625 1885.96875 C807.56353614 1886.12652208 798.06229458 1886.06364539 788.5625 1886.03125 C785.98567795 1886.02622411 783.40885496 1886.02166313 780.83203125 1886.01757812 C774.57549978 1886.00666079 768.31900444 1885.99000931 762.0625 1885.96875 C762.06434359 1887.27444632 762.06618717 1888.58014263 762.06808662 1889.9254055 C762.11155227 1921.03162431 762.14445562 1952.13783501 762.16463066 1983.24407717 C762.16713159 1987.08605801 762.16972029 1990.92803879 762.17236328 1994.77001953 C762.1728879 1995.53477807 762.17341252 1996.29953661 762.17395304 1997.08746965 C762.18261783 2009.41451401 762.19836576 2021.7415394 762.21680559 2034.06857257 C762.23561463 2046.74969609 762.24663978 2059.4308098 762.25067699 2072.1119467 C762.25339943 2079.91516972 762.26194643 2087.71833912 762.27833293 2095.5215456 C762.29031502 2101.53983347 762.291384 2107.55807677 762.28871536 2113.57637787 C762.28925867 2116.01977235 762.29314246 2118.46316916 762.30091095 2120.90655136 C762.4475783 2169.48343254 755.24843245 2216.76357777 724.0625 2255.96875 C723.32644531 2256.91234375 722.59039063 2257.8559375 721.83203125 2258.828125 C690.26415553 2298.38574626 645.58447154 2323.95533155 595.1394043 2330.09179688 C591.1180873 2330.50501993 587.10011414 2330.77785993 583.0625 2330.96875 C581.86995605 2331.02651611 581.86995605 2331.02651611 580.65332031 2331.08544922 C530.81016268 2333.10123889 482.31718954 2314.79215989 445.6875 2281.28125 C443.80090139 2279.52213666 441.9311345 2277.74709909 440.0625 2275.96875 C439.35738281 2275.31648438 438.65226562 2274.66421875 437.92578125 2273.9921875 C404.445363 2242.07373602 386.22621433 2194.09906901 384.79432106 2148.4972229 C384.66187869 2141.51491502 384.69013308 2134.53391704 384.72192383 2127.55078125 C384.72277247 2124.89701936 384.72242153 2122.24328221 384.72059631 2119.58952332 C384.71904071 2113.93081328 384.72826747 2108.27220886 384.74530983 2102.61352539 C384.76993231 2094.43253854 384.77752853 2086.25160155 384.7812738 2078.07058167 C384.78780235 2064.79002698 384.80766457 2051.50952828 384.83618164 2038.22900391 C384.86381624 2025.34586869 384.88500348 2012.46274881 384.89770508 1999.57958984 C384.89849325 1998.7823934 384.89928142 1997.98519695 384.90009347 1997.16384304 C384.90400924 1993.16362319 384.90780021 1989.16340324 384.91152918 1985.16318321 C384.94251279 1952.09832247 384.99775427 1919.03356615 385.0625 1885.96875 C356.6825 1885.96875 328.3025 1885.96875 299.0625 1885.96875 C299.07821045 1893.991875 299.0939209 1902.015 299.11010742 1910.28125 C299.15839484 1936.03756019 299.19168611 1961.79386922 299.21569599 1987.5502128 C299.2194475 1991.56000526 299.22333053 1995.56979759 299.22729492 1999.57958984 C299.22808185 2000.37776977 299.22886878 2001.17594969 299.22967956 2001.99831688 C299.24268558 2014.8731454 299.26631251 2027.74793318 299.29395839 2040.62273765 C299.32214706 2053.86207628 299.3387045 2067.10139378 299.34476548 2080.34076118 C299.34885422 2088.49103383 299.36170318 2096.64119126 299.3862494 2104.79142839 C299.40227342 2110.40242826 299.40686332 2116.01336976 299.40300413 2121.62439078 C299.40110805 2124.84762646 299.40544276 2128.07062454 299.42011642 2131.29383278 C299.66538071 2188.01199183 282.1681729 2237.38270307 242.1875 2278.15625 C212.54819228 2307.60142438 173.12702417 2324.62596779 132.0625 2329.96875 C130.6084375 2330.16791016 130.6084375 2330.16791016 129.125 2330.37109375 C81.88349798 2335.75957757 32.37613441 2320.76440954 -5 2291.71875 C-17.18650761 2281.9921276 -28.39553171 2271.31494495 -37.9375 2258.96875 C-38.64205322 2258.06793701 -38.64205322 2258.06793701 -39.36083984 2257.14892578 C-58.9730329 2231.75188833 -71.08317009 2201.60607355 -75.9375 2169.96875 C-76.09801377 2168.93998151 -76.25852755 2167.91121302 -76.42390537 2166.85126972 C-78.55276319 2150.75816438 -78.07648736 2134.32325428 -78.05102539 2118.12817383 C-78.0507427 2115.58353171 -78.05090285 2113.03888951 -78.0514679 2110.49424744 C-78.051694 2105.05593565 -78.04889854 2099.61763941 -78.04323006 2094.17933083 C-78.0350402 2086.31682893 -78.03249224 2078.45433281 -78.03124207 2070.59182712 C-78.02906319 2057.82985083 -78.02243496 2045.06788099 -78.01293945 2032.3059082 C-78.00373501 2019.92211946 -77.99666908 2007.53833249 -77.99243164 1995.15454102 C-77.99216892 1994.3888879 -77.99190619 1993.62323479 -77.99163551 1992.83438007 C-77.9903303 1988.99263175 -77.98906663 1985.15088342 -77.98782361 1981.30913508 C-77.97748732 1949.52900199 -77.95982574 1917.748877 -77.9375 1885.96875 C-78.57324951 1885.97319122 -79.20899902 1885.97763245 -79.86401367 1885.98220825 C-86.61521096 1886.02722525 -93.36636421 1886.05693277 -100.11767578 1886.07861328 C-102.62127418 1886.08853423 -105.12486145 1886.1020752 -107.62841797 1886.11962891 C-128.13206113 1886.25955742 -149.07505222 1886.30870312 -169.1875 1881.78125 C-170.65823975 1881.46087769 -170.65823975 1881.46087769 -172.15869141 1881.1340332 C-218.41558227 1870.58847889 -259.83948972 1843.05369208 -287.9375 1804.96875 C-288.55882812 1804.14246094 -289.18015625 1803.31617188 -289.8203125 1802.46484375 C-311.80436487 1772.24955317 -324.55933388 1735.49922087 -326.46850586 1698.22338867 C-326.51117301 1697.39652904 -326.55384016 1696.5696694 -326.59780025 1695.71775341 C-327.03379829 1686.75800825 -327.16239962 1677.80077048 -327.25390625 1668.83203125 C-327.27456063 1667.08798324 -327.29555871 1665.34393928 -327.31687927 1663.59989929 C-327.37122673 1659.08087507 -327.42100867 1654.56181256 -327.46972656 1650.04272461 C-327.52059305 1645.40279871 -327.57593366 1640.76292619 -327.63085938 1636.12304688 C-327.73736722 1627.07166053 -327.83903543 1618.02022718 -327.9375 1608.96875 C-328.41176926 1609.5145723 -328.88603851 1610.06039459 -329.37467957 1610.62275696 C-330.00022232 1611.34061874 -330.62576508 1612.05848053 -331.27026367 1612.7980957 C-331.88890793 1613.508918 -332.50755219 1614.2197403 -333.14494324 1614.95210266 C-346.25530379 1629.70141173 -363.47919372 1641.03777901 -380.9375 1649.96875 C-381.61635254 1650.31776367 -382.29520508 1650.66677734 -382.99462891 1651.02636719 C-427.21000942 1673.47019777 -479.35779316 1676.80998001 -526.48339844 1661.67773438 C-550.20423643 1653.61661394 -572.12355875 1641.55585147 -590.9375 1624.96875 C-591.92105469 1624.10636719 -592.90460938 1623.24398438 -593.91796875 1622.35546875 C-631.53331239 1588.8963847 -651.71449666 1542.64477018 -655.9375 1492.96875 C-656.40525588 1484.47371868 -656.34476865 1475.97070252 -656.31845093 1467.46582031 C-656.32191688 1464.98732931 -656.32668767 1462.50883985 -656.33263266 1460.03035355 C-656.34246803 1454.68871708 -656.34320996 1449.34720063 -656.33549118 1444.00556946 C-656.32404397 1436.06178576 -656.3299961 1428.1180777 -656.3391161 1420.17429435 C-656.35483951 1405.97864291 -656.35357377 1391.78303219 -656.34487936 1377.58737695 C-656.33730849 1365.16391916 -656.33537382 1352.74047623 -656.3389473 1340.3170166 C-656.33917645 1339.49034128 -656.33940561 1338.66366596 -656.33964171 1337.81193987 C-656.34057584 1334.4555128 -656.34153106 1331.09908574 -656.342521 1327.74265869 C-656.35168132 1296.30879377 -656.34340414 1264.87495467 -656.32723031 1233.44109374 C-656.31299535 1205.56357992 -656.31426931 1177.68610722 -656.32861328 1149.80859375 C-656.34470542 1118.4292424 -656.35103146 1087.04991383 -656.34177649 1055.67055893 C-656.34081446 1052.32053376 -656.33987593 1048.97050858 -656.3389473 1045.6204834 C-656.33871006 1044.79572727 -656.33847283 1043.97097114 -656.33822841 1043.12122241 C-656.33482763 1030.71089492 -656.33878501 1018.30058398 -656.34638596 1005.89025879 C-656.3549929 991.76768553 -656.3527574 977.64515907 -656.33654372 963.52259159 C-656.32778573 955.63570018 -656.32708551 947.74891031 -656.33848225 939.8620217 C-656.34607805 933.94935143 -656.33774085 928.03676902 -656.32355852 922.12410879 C-656.32023891 919.75025764 -656.32184021 917.37639271 -656.32918589 915.0025506 C-656.4322969 878.87744188 -650.252225 844.91203971 -632.9375 812.96875 C-632.37289062 811.92332031 -631.80828125 810.87789062 -631.2265625 809.80078125 C-619.50596482 788.97333419 -603.66412912 770.74115066 -584.9375 755.96875 C-583.99777344 755.22367188 -583.05804687 754.47859375 -582.08984375 753.7109375 C-553.17649604 731.37411168 -515.82450755 716.08687123 -478.99609375 715.73046875 C-478.15922028 715.72072021 -477.3223468 715.71097168 -476.46011353 715.70092773 C-458.59251654 715.53554253 -441.37495891 715.58869066 -423.9375 719.96875 C-423.15552246 720.15066895 -422.37354492 720.33258789 -421.56787109 720.52001953 C-391.05040499 727.65372427 -362.57949021 743.44765039 -339.9375 764.96875 C-337.86938391 766.76345413 -335.78789341 768.53936979 -333.69140625 770.30078125 C-331.53492766 772.3515972 -329.77907821 774.63484751 -327.9375 776.96875 C-327.91910568 776.15475739 -327.90071136 775.34076477 -327.88175964 774.50210571 C-327.70240552 766.65397303 -327.51202804 758.80620796 -327.31063366 750.95861244 C-327.20756231 746.92857174 -327.10809295 742.89852446 -327.01831055 738.86816406 C-326.36788543 709.89021978 -324.77041411 681.01969531 -320.3125 652.34375 C-320.18944489 651.53609192 -320.06638977 650.72843384 -319.93960571 649.89630127 C-315.34293696 619.9900467 -308.19722493 590.75877455 -298.9375 561.96875 C-298.30794464 559.95072322 -297.67901299 557.93250173 -297.05078125 555.9140625 C-286.16212782 521.52853895 -271.15592355 487.84200979 -253.36132812 456.49414062 C-251.98087224 454.04567771 -250.63539951 451.58095752 -249.296875 449.109375 C-236.23339636 425.27255257 -220.50415819 402.4956478 -203.9375 380.96875 C-203.21046875 380.01863037 -203.21046875 380.01863037 -202.46875 379.04931641 C-196.33416472 371.05393471 -189.93992992 363.29801287 -183.37744141 355.65136719 C-181.85275974 353.86972832 -180.33794495 352.0800159 -178.82421875 350.2890625 C-169.68120514 339.50070359 -169.68120514 339.50070359 -164.61254883 334.64477539 C-162.94169155 332.97294399 -161.41981796 331.2353138 -159.890625 329.43359375 C-155.32996825 324.18916866 -150.42294839 319.308205 -145.5 314.40625 C-144.59701172 313.49939453 -143.69402344 312.59253906 -142.76367188 311.65820312 C-138.2164486 307.11756526 -133.61778921 302.71095057 -128.74047852 298.52661133 C-125.96265203 296.12643383 -123.30231512 293.60465683 -120.625 291.09375 C-114.92265128 285.79500534 -109.01035619 280.83976964 -102.9375 275.96875 C-101.74476658 274.9859835 -100.55344599 274.00150069 -99.36328125 273.015625 C-89.17233457 264.60015852 -78.65820955 256.69518575 -67.9375 248.96875 C-67.20354004 248.43862305 -66.46958008 247.90849609 -65.71337891 247.36230469 C-57.82149194 241.67815038 -49.83220792 236.16006777 -41.6875 230.84375 C-40.98415527 230.38202393 -40.28081055 229.92029785 -39.55615234 229.44458008 C-38.89309082 229.01685303 -38.2300293 228.58912598 -37.546875 228.1484375 C-36.96905273 227.77444824 -36.39123047 227.40045898 -35.79589844 227.01513672 C-33.58435228 225.76990723 -31.30769823 224.86889613 -28.9375 223.96875 C-36.45511787 209.80678082 -44.02144424 195.68773299 -51.95654297 181.75415039 C-56.28272184 174.15094011 -60.53040363 166.50639774 -64.75 158.84375 C-65.08489441 158.23574554 -65.41978882 157.62774109 -65.76483154 157.00131226 C-67.47225127 153.90104059 -69.17878467 150.80028233 -70.88476562 147.69921875 C-73.91969771 142.18286392 -76.95971698 136.66931715 -80.00067139 131.15628052 C-80.99549953 129.35191273 -81.98928202 127.54697219 -82.98291016 125.74194336 C-86.32878668 119.66796441 -89.69691814 113.6076565 -93.1015625 107.56640625 C-94.11761497 105.75786988 -95.13319995 103.94907179 -96.14865112 102.14019775 C-97.08719558 100.47338879 -98.03283214 98.81057929 -98.97875977 97.14794922 C-109.73038704 77.99431858 -114.72083974 58.65738695 -109.3125 36.84375 C-103.63962425 18.856583 -92.2985754 3.81720541 -75.82421875 -5.6484375 C-50.73153928 -17.66847611 -22.89347783 -15.83059638 0 0 Z " fill="#FEFEFE" transform="translate(657.9375,15.03125)"/>
<path d="M0 0 C408.54 0 817.08 0 1238 0 C1238.0825 150.19125 1238.165 300.3825 1238.25 455.125 C1238.28641602 502.58973145 1238.32283203 550.05446289 1238.36035156 598.95751953 C1238.37841797 656.81225586 1238.37841797 656.81225586 1238.3817749 683.87619019 C1238.38575516 704.07088735 1238.40300937 724.26553099 1238.42669371 744.46021313 C1238.45052524 765.05904062 1238.45934201 785.65783436 1238.4537798 806.25667512 C1238.45091298 818.49955667 1238.4588356 830.74231249 1238.48323038 842.98517074 C1238.49825986 851.07810856 1238.49865892 859.17096313 1238.48734136 867.26390675 C1238.48131556 871.8674934 1238.4814575 876.47083922 1238.49953032 881.07439971 C1238.6542252 923.01154282 1231.09439527 961.24996209 1203 994 C1202.31292969 994.80953125 1201.62585937 995.6190625 1200.91796875 996.453125 C1179.78652601 1020.66861614 1151.39060684 1037.1505729 1120 1044 C1118.96161987 1044.25546097 1117.92323975 1044.51092194 1116.85339355 1044.77412415 C1103.72593533 1047.68700269 1090.6696365 1047.3799194 1077.28125 1047.29296875 C1074.72579194 1047.28736252 1072.17033062 1047.28309728 1069.61486816 1047.28010559 C1063.61938385 1047.26989418 1057.62410104 1047.24634818 1051.62869692 1047.21605712 C1044.79172051 1047.1822795 1037.95473517 1047.165969 1031.11769581 1047.15097082 C1017.07837148 1047.11978994 1003.03919503 1047.0671771 989 1047 C989.00151888 1047.67163185 989.00303776 1048.34326371 989.00460267 1049.03524804 C989.09426517 1088.90987694 989.16282193 1128.78449274 989.20426132 1168.65920217 C989.20926368 1173.45525605 989.21444102 1178.25130971 989.21972656 1183.04736328 C989.22130043 1184.47947498 989.22130043 1184.47947498 989.22290608 1185.94051823 C989.24027474 1201.36587072 989.27179277 1216.79116311 989.30861118 1232.21648005 C989.34611938 1248.06386678 989.36825666 1263.9112222 989.37635398 1279.75865149 C989.38182134 1289.52427748 989.39904068 1299.28973354 989.43166587 1309.05530718 C989.45293596 1315.76704848 989.45917203 1322.47870293 989.45400551 1329.19047543 C989.45146299 1333.05322766 989.45514481 1336.91568459 989.4768219 1340.77838326 C989.56295515 1356.92234216 989.14600941 1372.30135443 985 1388 C984.71389484 1389.09384632 984.42778969 1390.18769264 984.13301468 1391.31468582 C983.46047193 1393.76667105 982.7036163 1396.15918159 981.875 1398.5625 C981.58133545 1399.42125732 981.2876709 1400.28001465 980.98510742 1401.16479492 C975.28462303 1417.14695483 966.67073125 1430.89670711 956 1444 C955.32839844 1444.83273437 954.65679688 1445.66546875 953.96484375 1446.5234375 C950.05211313 1451.17593268 945.67732429 1455.13057718 941 1459 C940.24976563 1459.63808594 939.49953125 1460.27617187 938.7265625 1460.93359375 C921.06816497 1475.59177811 900.24352569 1484.85005315 878 1490 C877.17314697 1490.19287598 876.34629395 1490.38575195 875.49438477 1490.58447266 C867.36099431 1492.27750549 859.21483318 1492.48220798 850.9375 1492.5 C850.19688324 1492.50267883 849.45626648 1492.50535767 848.69320679 1492.50811768 C818.7464479 1492.48481312 789.50952695 1482.7137176 766 1464 C765.23888916 1463.39913574 765.23888916 1463.39913574 764.46240234 1462.78613281 C750.88782848 1451.98752012 739.9540652 1439.86782669 731 1425 C730.61215332 1424.36674805 730.22430664 1423.73349609 729.82470703 1423.08105469 C724.50840405 1414.25844371 720.759833 1405.16086578 717.5625 1395.375 C717.23233887 1394.37484863 716.90217773 1393.37469727 716.56201172 1392.34423828 C712.66345962 1379.77543687 711.69617791 1367.1089036 711.75949097 1354.00978088 C711.75861588 1352.67277331 711.75685936 1351.33576608 711.75431263 1349.99876064 C711.74989459 1346.37270036 711.75776513 1342.7467609 711.76786876 1339.12071598 C711.77658213 1335.19251794 711.77357757 1331.2643256 711.77206421 1327.33612061 C711.7710203 1320.54611689 711.77724492 1313.75615189 711.78853989 1306.96615791 C711.80485937 1297.14921788 711.81000946 1287.33229638 711.81251587 1277.51534425 C711.8168829 1261.58435629 711.83016497 1245.65338891 711.84912109 1229.72241211 C711.86750565 1214.25561626 711.88162656 1198.78882605 711.89013672 1183.32202148 C711.89067271 1182.35742297 711.89120871 1181.39282447 711.89176095 1180.3989957 C711.89592029 1172.85414372 711.89983396 1165.30929161 711.90367007 1157.76443946 C711.92250525 1120.84294074 711.96274946 1083.92149361 712 1047 C650.62 1047 589.24 1047 526 1047 C526.03480469 1069.95175781 526.06960938 1092.90351562 526.10546875 1116.55078125 C526.12079773 1131.09309964 526.13538222 1145.63541305 526.14648438 1160.17773438 C526.15235737 1167.81925475 526.15841863 1175.46077495 526.16479492 1183.10229492 C526.16598179 1184.53876528 526.16598179 1184.53876528 526.16719264 1186.00425524 C526.18021549 1201.43406569 526.20385304 1216.86384237 526.23145839 1232.29363284 C526.25958292 1248.14666645 526.27619111 1263.99968246 526.28226548 1279.85273999 C526.28636735 1289.62294284 526.29928942 1299.39305021 526.3237494 1309.16322365 C526.33969374 1315.87681848 526.34438083 1322.59036446 526.34050413 1329.30397681 C526.33859601 1333.16857947 526.34137351 1337.03301613 526.35761642 1340.89758873 C526.43642287 1360.63700396 526.30358917 1379.86368506 519.375 1398.625 C519.02872559 1399.58591553 518.68245117 1400.54683105 518.32568359 1401.53686523 C505.74043316 1435.39315976 480.41427138 1463.79533231 447.55566406 1479.14160156 C436.6689249 1483.97029495 425.67041476 1487.62116672 414 1490 C413.2152832 1490.17587646 412.43056641 1490.35175293 411.62207031 1490.53295898 C403.70158656 1492.17927765 395.94635396 1492.34748145 387.875 1492.3125 C387.18891663 1492.31001251 386.50283325 1492.30752502 385.79595947 1492.30496216 C346.43661274 1492.08435729 313.37132991 1475.54566959 286 1448 C284.86691406 1446.88044922 284.86691406 1446.88044922 283.7109375 1445.73828125 C269.91905029 1431.41593684 260.54651452 1412.9549776 254.75 1394.0625 C254.51563232 1393.3008252 254.28126465 1392.53915039 254.03979492 1391.75439453 C253.29350405 1389.18321226 252.64565645 1386.59838117 252 1384 C251.74358073 1383.0335833 251.48716146 1382.0671666 251.22297192 1381.07146454 C248.06895966 1367.22126324 248.59270323 1353.12500873 248.65180314 1339.00465035 C248.66488538 1335.07715216 248.66036552 1331.14966659 248.65809631 1327.22215271 C248.6565312 1320.43487471 248.66586012 1313.64768392 248.68280983 1306.86042786 C248.70729946 1297.04748114 248.71501523 1287.23457615 248.7187738 1277.42160219 C248.72532275 1261.49670184 248.74524142 1245.57184786 248.77368164 1229.64697266 C248.80126268 1214.18701406 248.82247641 1198.72706811 248.83520508 1183.26708984 C248.83638733 1181.83515684 248.83638733 1181.83515684 248.83759347 1180.37429589 C248.84150888 1175.58473925 248.84529994 1170.79518252 248.84902918 1166.00562572 C248.88007655 1126.33705137 248.93286966 1086.66852876 249 1047 C248.42022589 1047.00184359 247.84045177 1047.00368717 247.24310875 1047.00558662 C233.07640601 1047.04993107 218.90971379 1047.0829365 204.74295616 1047.10362434 C197.89176298 1047.11389707 191.04061639 1047.12787992 184.18945312 1047.15087891 C177.56937395 1047.17309139 170.94933021 1047.18459171 164.32921219 1047.18975449 C161.81205105 1047.19343059 159.29489235 1047.20060875 156.77775192 1047.21146011 C140.53664581 1047.27864792 125.31696893 1046.94334568 109.625 1042.3125 C108.73143799 1042.05122314 107.83787598 1041.78994629 106.91723633 1041.52075195 C72.51375087 1031.13241719 42.21261554 1008.44525436 23 978 C22.62488281 977.40622559 22.24976563 976.81245117 21.86328125 976.20068359 C5.84850981 950.38164722 -0.36163457 921.8034014 -0.24609566 891.7276144 C-0.24757942 890.15870473 -0.24994132 888.5897957 -0.25308805 887.02088848 C-0.25916318 882.74528177 -0.25292992 878.46977175 -0.2445315 874.19417233 C-0.23762252 869.54001407 -0.24241918 864.88586492 -0.24569702 860.23170471 C-0.24984075 852.07813313 -0.24657837 843.92459086 -0.23843026 835.77102268 C-0.22619748 823.48961465 -0.22569303 811.20822426 -0.22736086 798.92681123 C-0.229842 778.34268654 -0.2232707 757.75857463 -0.21115112 737.17445374 C-0.19479279 709.34192447 -0.19094436 681.50941705 -0.18920898 653.67687988 C-0.17870793 586.76375066 -0.15078571 519.85062508 -0.125 452.9375 C-0.08375 303.468125 -0.0425 153.99875 0 0 Z " fill="#A4C639" transform="translate(381,804)"/>
<path d="M0 0 C8.62090759 5.09581871 12.67601452 14.16456638 17.25 22.6875 C17.95349174 23.98293026 18.65793644 25.27784341 19.36328125 26.57226562 C20.81143685 29.23080342 22.256153 31.89116614 23.69873047 34.55273438 C26.85872313 40.37243705 30.08732394 46.15371572 33.3125 51.9375 C38.49912712 61.25990026 43.66303209 70.59454941 48.8125 79.9375 C56.4472533 93.78860605 64.12440237 107.61592796 71.8125 121.4375 C80.38371096 136.84672287 88.9362722 152.26580927 97.44702148 167.70849609 C100.89123808 173.95762334 104.34102385 180.20346822 107.8125 186.4375 C108.43366699 186.18693848 109.05483398 185.93637695 109.69482422 185.67822266 C116.21284246 183.0521985 122.73797164 180.44447967 129.26806641 177.84863281 C131.52431413 176.95036089 133.77933844 176.0490054 136.03271484 175.14355469 C195.54018155 151.27316927 259.86280233 136.9705242 323.8125 132.4375 C324.90328857 132.35209961 325.99407715 132.26669922 327.11791992 132.17871094 C341.60436695 131.16910156 356.10963604 131.19601641 370.625 131.1875 C371.65944056 131.18617443 371.65944056 131.18617443 372.7147789 131.18482208 C397.83234382 131.15632621 422.79955159 132.01163298 447.8125 134.4375 C448.56368103 134.50972778 449.31486206 134.58195557 450.08880615 134.65637207 C460.67679737 135.69617533 471.13019294 137.21271917 481.60687256 139.05401611 C483.75776214 139.42798294 485.91056033 139.78689115 488.06494141 140.14013672 C537.98501919 148.34832413 585.82490613 163.20664482 632.63867188 182.16455078 C636.342625 183.6501209 640.06595303 185.06344914 643.8125 186.4375 C644.34653442 185.43674438 644.34653442 185.43674438 644.89135742 184.41577148 C651.71851825 171.63818261 658.61670423 158.91700097 665.78076172 146.32446289 C670.12124803 138.68601343 674.38687971 131.00801068 678.625 123.3125 C678.95980377 122.70467682 679.29460754 122.09685364 679.63955688 121.47061157 C681.34707131 118.37015854 683.05368412 115.26921047 684.75976562 112.16796875 C688.12726227 106.04713776 691.50076199 99.92961658 694.875 93.8125 C695.20600708 93.21236084 695.53701416 92.61222168 695.87805176 91.99389648 C701.9241681 81.03323864 707.99658868 70.08731528 714.08203125 59.1484375 C716.62686781 54.57349561 719.16544945 49.99514052 721.69921875 45.4140625 C724.81704787 39.77737148 727.94981265 34.14914176 731.09179688 28.52587891 C732.20760148 26.52319328 733.31858271 24.51780969 734.42382812 22.50927734 C735.87415907 19.87395378 737.34102541 17.24855934 738.8125 14.625 C739.22081055 13.87283203 739.62912109 13.12066406 740.04980469 12.34570312 C743.61166066 6.06825802 748.15078004 1.39985724 754.8125 -1.5625 C760.62664604 -2.4128683 765.84974336 -1.88067262 770.98828125 1.02734375 C776.39169004 5.20428288 779.35541613 10.44106131 780.375 17.125 C780.18870692 24.96172887 775.49723723 31.75137682 771.8125 38.4375 C770.96727783 39.98655029 770.96727783 39.98655029 770.10498047 41.56689453 C765.722568 49.59613723 761.29016868 57.5970106 756.84100342 65.5894165 C755.22694667 68.48966125 753.61553075 71.39137192 752.00390625 74.29296875 C750.15618005 77.61926577 748.30812073 80.94537437 746.45874023 84.27075195 C741.89244789 92.48338325 737.34818212 100.70794433 732.8125 108.9375 C727.05053406 119.39202883 721.2650341 129.8331562 715.46142578 140.26464844 C712.22095732 146.09221707 708.98917096 151.92438065 705.7734375 157.765625 C705.43576859 158.37890656 705.09809967 158.99218811 704.75019836 159.62405396 C703.39411363 162.08720316 702.03806596 164.55037254 700.68258667 167.01385498 C695.43656428 176.54463466 690.11623689 186.03150398 684.70849609 195.47167969 C683.95753662 196.78894043 683.95753662 196.78894043 683.19140625 198.1328125 C682.7538501 198.89609863 682.31629395 199.65938477 681.86547852 200.44580078 C680.68490569 202.54722011 680.68490569 202.54722011 679.8125 205.4375 C681.02099609 205.78554688 681.02099609 205.78554688 682.25390625 206.140625 C686.68131705 207.75412707 690.64036862 209.89741868 694.75 212.1875 C695.61898926 212.66993164 696.48797852 213.15236328 697.38330078 213.64941406 C735.62254954 235.07100993 771.89024062 260.61253094 804.30078125 290.171875 C806.37188666 292.04005717 808.46405379 293.87506116 810.5703125 295.703125 C814.93475085 299.51442522 819.16357952 303.45856517 823.375 307.4375 C824.09107422 308.11039062 824.80714844 308.78328125 825.54492188 309.4765625 C837.52176881 320.76683859 837.52176881 320.76683859 842.3125 326.4375 C844.5118767 328.99366447 846.76189523 331.4082295 849.1875 333.75 C852.95261144 337.4478773 856.19231173 341.5123293 859.49609375 345.62109375 C861.67235421 348.26710351 863.92823459 350.79418303 866.25 353.3125 C870.99523593 358.53390147 875.26436897 364.06090261 879.49560547 369.69677734 C880.7846106 371.4006347 882.09433946 373.08632702 883.41015625 374.76953125 C899.15891441 395.09779564 913.23311751 417.03146513 925.8125 439.4375 C926.36035156 440.40445801 926.90820312 441.37141602 927.47265625 442.36767578 C942.81845724 469.59423785 955.31183541 498.0215443 965.8125 527.4375 C966.11978027 528.2929541 966.42706055 529.1484082 966.74365234 530.02978516 C979.78792005 566.67796585 987.97981174 605.23615392 992.125 643.875 C992.20622101 644.62652344 992.28744202 645.37804687 992.37112427 646.15234375 C994.37228268 664.95615867 994.8125 683.45256384 994.8125 702.4375 C586.2725 702.4375 177.7325 702.4375 -243.1875 702.4375 C-243.1875 667.62297341 -243.1875 667.62297341 -242 656.6875 C-241.8654541 655.37845703 -241.7309082 654.06941406 -241.59228516 652.72070312 C-241.16033968 648.62180069 -240.68109963 644.52938353 -240.1875 640.4375 C-240.10735657 639.76501221 -240.02721313 639.09252441 -239.94464111 638.3996582 C-236.04375205 605.93664019 -229.30150396 573.54720754 -219.1875 542.4375 C-218.8363916 541.34598633 -218.4852832 540.25447266 -218.12353516 539.12988281 C-206.03234986 501.88383159 -190.01228955 466.21306739 -170.1875 432.4375 C-169.69427246 431.58639648 -169.20104492 430.73529297 -168.69287109 429.85839844 C-148.31284265 394.70540113 -123.505119 362.14852057 -95.8984375 332.3671875 C-94.07993746 330.4019497 -92.27158212 328.43159411 -90.4765625 326.4453125 C-82.23351363 317.33776317 -73.80244051 308.36878517 -64.43359375 300.40234375 C-61.9704483 298.24762695 -59.5880657 296.01954132 -57.203125 293.77905273 C-50.73921946 287.7096457 -44.1146813 281.97740759 -37.1875 276.4375 C-35.99591891 275.45621778 -34.80591404 274.47301955 -33.6171875 273.48828125 C-1.26158882 246.75350439 34.24985841 224.87834535 70.8125 204.4375 C69.41696016 200.76504866 67.77298571 197.35004689 65.90625 193.89453125 C65.33269775 192.83049072 64.75914551 191.7664502 64.16821289 190.67016602 C63.55582764 189.54151123 62.94344238 188.41285645 62.3125 187.25 C61.67234931 186.06637644 61.03229488 184.8827008 60.39233398 183.69897461 C55.72702372 175.07998157 50.99674901 166.49893947 46.21289062 157.9453125 C43.34086623 152.80210563 40.48465924 147.65008856 37.625 142.5 C36.32819498 140.16532567 35.03133827 137.83068016 33.734375 135.49609375 C33.24650513 134.61787209 33.24650513 134.61787209 32.7487793 133.72190857 C30.52633433 129.72154205 28.3024955 125.72195253 26.078125 121.72265625 C19.29913783 109.5319252 12.54040714 97.33035526 5.80755615 85.11410522 C0.88946177 76.19114008 -4.04801906 67.27920084 -9 58.375 C-11.39652646 54.0628848 -13.79224023 49.75031892 -16.1875 45.4375 C-16.74969238 44.42574707 -17.31188477 43.41399414 -17.89111328 42.37158203 C-19.45100411 39.56174007 -21.00736118 36.74997411 -22.5625 33.9375 C-23.02116455 33.11241943 -23.4798291 32.28733887 -23.95239258 31.43725586 C-24.3677124 30.68452393 -24.78303223 29.93179199 -25.2109375 29.15625 C-25.75113525 28.18075195 -25.75113525 28.18075195 -26.30224609 27.18554688 C-28.85679985 22.14125429 -29.11365969 16.69380667 -27.57421875 11.28125 C-25.16145736 5.7542195 -21.31936042 2.48289561 -16.1875 -0.5625 C-10.7121432 -2.38761893 -5.31037937 -2.38967072 0 0 Z " fill="#A4C639" transform="translate(624.1875,52.5625)"/>
<path d="M0 0 C0.84820312 0.23605957 1.69640625 0.47211914 2.5703125 0.71533203 C35.46571365 10.12181566 64.85580745 30.63968842 83 60 C83.5868457 60.94891113 83.5868457 60.94891113 84.18554688 61.91699219 C96.45275458 82.08730372 104.17098519 104.6259339 104.13422108 128.36609268 C104.13657331 129.40176195 104.13892554 130.43743123 104.14134905 131.50448442 C104.14802236 134.98560513 104.14758133 138.46668837 104.14717102 141.94781494 C104.15047069 144.46469357 104.15419647 146.98157166 104.1583125 149.49844909 C104.16727831 155.6972736 104.1715583 161.89608696 104.17383147 168.09491707 C104.17679706 175.52072343 104.18549663 182.94652034 104.19424575 190.37232174 C104.2150778 208.32149799 104.22555846 226.27067586 104.23437535 244.21986137 C104.2385841 252.71472354 104.24380582 261.209585 104.24905988 269.70444658 C104.26695005 298.79468359 104.28194468 327.88492081 104.28938007 356.97516251 C104.28985483 358.80107418 104.29033072 360.62698586 104.29080774 362.45289753 C104.29104411 363.35836849 104.29128049 364.26383945 104.29152403 365.19674892 C104.2927252 369.78416074 104.29394066 374.37157256 104.29516602 378.95898438 C104.29540617 379.86936348 104.29564632 380.77974258 104.29589374 381.71770893 C104.30378319 411.22124841 104.32720774 440.72474765 104.35972196 470.22826957 C104.39405041 501.43512862 104.41373405 532.64196414 104.41702431 563.84884238 C104.41744184 567.27739955 104.4179214 570.7059567 104.41844749 574.13451385 C104.41857069 574.97869541 104.41869388 575.82287696 104.4188208 576.69263978 C104.42114918 590.25571908 104.43678898 603.81875151 104.45728934 617.38181413 C104.47758522 631.02655016 104.4830069 644.67123011 104.47351871 658.31597844 C104.4683182 666.41271858 104.47411222 674.50927151 104.49605338 682.60598456 C104.51122967 688.66670155 104.50526793 694.72721048 104.49138286 700.78793833 C104.48901034 703.2288348 104.49331165 705.66974953 104.50521151 708.11061814 C104.68787297 748.0743477 91.50034159 782.89250742 63.375 811.6875 C62.59125 812.450625 61.8075 813.21375 61 814 C60.55011719 814.495 60.10023438 814.99 59.63671875 815.5 C39.68242777 836.8902077 5.94982788 851.0866017 -23.12817383 852.11010742 C-26.79435312 852.17063577 -30.45833666 852.18561386 -34.125 852.1875 C-35.35476562 852.19974609 -36.58453125 852.21199219 -37.8515625 852.22460938 C-49.94417128 852.24366286 -61.50844936 850.87152495 -73.0625 847.25 C-73.91465088 846.98759521 -74.76680176 846.72519043 -75.64477539 846.45483398 C-82.73084976 844.20940276 -89.39470594 841.41830393 -96 838 C-97.63001953 837.18208984 -97.63001953 837.18208984 -99.29296875 836.34765625 C-112.92926229 829.29770848 -124.31864318 819.97004214 -135 809 C-135.495 808.55011719 -135.99 808.10023438 -136.5 807.63671875 C-159.87516614 785.83071886 -172.46373703 750.94220749 -173.56397962 719.62005337 C-173.66390976 714.0831605 -173.64781479 708.54999288 -173.61473083 703.01254272 C-173.61835362 700.49377417 -173.62416779 697.97500801 -173.63195282 695.45624888 C-173.64377127 690.02986889 -173.64042167 684.60384479 -173.62294388 679.17748642 C-173.59702674 671.10828587 -173.60029043 663.03927056 -173.60898646 654.97004234 C-173.62278168 641.38535403 -173.61326338 627.80077756 -173.58978081 614.21610641 C-173.56656208 600.77255691 -173.55297175 587.32905694 -173.55226326 573.8854866 C-173.55220981 573.04648312 -173.55215636 572.20747964 -173.55210129 571.34305181 C-173.55191266 567.93671935 -173.55179112 564.53038689 -173.55175897 561.12405442 C-173.55141885 529.23120276 -173.52442973 497.33842621 -173.48356687 465.44560324 C-173.44741305 437.13837052 -173.42830149 408.83118143 -173.42553711 380.52392578 C-173.42544561 379.62307389 -173.4253541 378.722222 -173.42525982 377.79407157 C-173.42498338 375.06864839 -173.42471189 372.34322521 -173.4244408 369.61780202 C-173.42407775 365.9974463 -173.42370435 362.37709057 -173.42332363 358.75673485 C-173.4232334 357.86333759 -173.42314318 356.96994034 -173.42305022 356.04947043 C-173.42006653 328.11369805 -173.40260055 300.17793371 -173.38263602 272.24216896 C-173.37602856 262.98494891 -173.37033545 253.72773013 -173.36744571 244.4705081 C-173.36718453 243.63848529 -173.36692336 242.80646248 -173.36665427 241.94922686 C-173.36639514 241.11900107 -173.36613602 240.28877528 -173.36586904 239.43339114 C-173.36086721 223.4300634 -173.34961366 207.42676779 -173.32456874 191.42345767 C-173.31219561 183.41027377 -173.30511848 175.39712891 -173.30591112 167.38393524 C-173.30586871 161.39327082 -173.29532236 155.40267249 -173.28073419 149.41202386 C-173.27642893 146.99462351 -173.2754386 144.57721443 -173.27816027 142.15981178 C-173.2928474 126.96702095 -173.14987908 112.04043992 -168.9375 97.3125 C-168.72617432 96.57322266 -168.51484863 95.83394531 -168.29711914 95.07226562 C-157.33667739 58.70231662 -131.95682333 29.22314543 -98.953125 10.9453125 C-68.86256068 -4.38060705 -32.65913041 -9.29210961 0 0 Z " fill="#A4C639" transform="translate(225,784)"/>
<path d="M0 0 C0.9921904 0.00422974 0.9921904 0.00422974 2.00442505 0.00854492 C39.31798263 0.24695943 72.47828762 14.91047861 99.125 40.9375 C99.888125 41.72125 100.65125 42.505 101.4375 43.3125 C101.9325 43.76238281 102.4275 44.21226562 102.9375 44.67578125 C123.90201382 64.23295503 138.40663314 97.19261488 139.53098813 125.68128226 C139.56767643 128.36769387 139.57393724 131.05251076 139.56892776 133.73917103 C139.5709804 134.76924065 139.57303303 135.79931027 139.57514787 136.86059412 C139.58080806 140.31664613 139.57936182 143.77265817 139.57794189 147.22871399 C139.5805261 149.72995636 139.58353941 152.23119831 139.5869453 154.7324397 C139.59416634 160.88870845 139.59671762 167.0449647 139.59727435 173.20123719 C139.59818945 180.57691277 139.60486136 187.95258036 139.61162117 195.3282525 C139.62766957 213.15489302 139.63358339 230.98153268 139.63836992 248.80817913 C139.6407073 257.24547501 139.64431013 265.68277021 139.6480653 274.12006557 C139.66090054 303.01510563 139.67161915 331.91014532 139.6750679 360.80518818 C139.67528953 362.61856898 139.67551132 364.43194978 139.67573325 366.24533058 C139.67595389 368.0630375 139.67617437 369.88074442 139.6763947 371.69845134 C139.67683725 375.34494738 139.67728436 378.99144342 139.67773438 382.63793945 C139.67789846 383.99411472 139.67789846 383.99411472 139.67806586 385.37768747 C139.68169488 414.68052881 139.6976092 443.98334539 139.72092474 473.28617725 C139.74554333 504.28350104 139.75924171 535.28081069 139.76043582 566.27814454 C139.76060727 569.6836565 139.76082269 573.08916845 139.76107025 576.4946804 C139.76112602 577.33318286 139.76118179 578.17168531 139.76123925 579.03559693 C139.762388 592.50655797 139.77339517 605.97749352 139.78795731 619.44844596 C139.80235283 633.00007713 139.8055421 646.55167576 139.79751733 660.10331247 C139.79307526 668.14448142 139.79686439 676.18554506 139.81275584 684.22670009 C139.82371503 690.24600376 139.81882017 696.26518852 139.80798396 702.28449681 C139.80603213 704.70853805 139.80908145 707.13258998 139.81782833 709.55661622 C139.87703579 727.08398855 139.19699391 744.31533034 133.25 761 C132.94811768 761.87027832 132.64623535 762.74055664 132.33520508 763.63720703 C125.12673623 783.79726731 113.94692988 800.82179681 98.828125 815.91796875 C97.49891516 817.2493505 96.18067663 818.59296952 94.91015625 819.98046875 C75.40289192 841.0007619 42.68016845 854.5206772 14.37890625 856.1875 C-12.36961299 857.03581776 -36.43890292 854.79669616 -60.5625 842.3125 C-62.19251953 841.49458984 -62.19251953 841.49458984 -63.85546875 840.66015625 C-77.49176229 833.61020848 -88.88114318 824.28254214 -99.5625 813.3125 C-100.0575 812.86261719 -100.5525 812.41273438 -101.0625 811.94921875 C-119.21933685 795.01124363 -130.68062836 769.32867161 -135.5625 745.3125 C-135.73041225 744.53283756 -135.8983245 743.75317513 -136.071325 742.94988656 C-138.22619956 731.29649734 -137.84332633 719.55023784 -137.82319641 707.74359131 C-137.82621922 705.23248279 -137.83010935 702.72137519 -137.83478898 700.21026921 C-137.84291951 694.76349433 -137.84487427 689.316772 -137.84128571 683.86999321 C-137.8359633 675.77004271 -137.84208945 667.67012843 -137.85036864 659.57018187 C-137.86558848 644.2596284 -137.86731577 628.94909151 -137.86484561 613.63853207 C-137.86301109 601.81308887 -137.86477589 589.98765108 -137.86907005 578.16220856 C-137.86967246 576.46167791 -137.87027366 574.76114727 -137.87087366 573.06061663 C-137.87178094 570.49789589 -137.8726896 567.93517515 -137.87360601 565.37245442 C-137.88203258 541.55309574 -137.88637329 517.73373909 -137.88219929 493.91437912 C-137.88196472 492.56816665 -137.88196472 492.56816665 -137.88172542 491.19475798 C-137.88091967 486.64627557 -137.8800739 482.09779317 -137.87921212 477.54931077 C-137.87904103 476.64601129 -137.87886994 475.74271181 -137.87869367 474.81203961 C-137.87834701 472.98534965 -137.87799848 471.1586597 -137.87764808 469.33196974 C-137.87229162 440.91254438 -137.8802204 412.49315005 -137.89868164 384.07373047 C-137.91941204 352.12393619 -137.93012236 320.17416113 -137.92610615 288.22435975 C-137.92571083 284.81559134 -137.92534928 281.40682292 -137.92500877 277.9980545 C-137.92491804 277.15876656 -137.92482731 276.31947861 -137.92473383 275.4547577 C-137.92356938 262.80212355 -137.93020456 250.14950886 -137.94082069 237.49687958 C-137.95288692 223.10155535 -137.95441529 208.70627388 -137.94203053 194.310949 C-137.93541563 186.26267143 -137.93700126 178.2144962 -137.95061904 170.16622688 C-137.95986937 164.14538851 -137.95331297 158.12467362 -137.94077124 152.1038368 C-137.93812515 149.67661739 -137.94048803 147.24938595 -137.94850711 144.82217833 C-138.06171913 107.98380983 -128.02200729 75.34474431 -103.5625 47.3125 C-102.95664063 46.58546875 -102.35078125 45.8584375 -101.7265625 45.109375 C-82.45787005 22.26594775 -54.32700522 8.54123667 -25.5625 2.3125 C-24.73886963 2.12631104 -23.91523926 1.94012207 -23.06665039 1.74829102 C-15.37188492 0.15785562 -7.84049816 -0.03585366 0 0 Z " fill="#A4C639" transform="translate(1808.5625,779.6875)"/>
<path d="M0 0 C2.00141455 1.40639942 3.78262032 2.89583793 5.5859375 4.546875 C6.24851562 5.11921875 6.91109375 5.6915625 7.59375 6.28125 C17.52794801 15.42222307 22.75037346 26.83344305 23.8984375 40.1796875 C24.38475197 54.98188423 19.92342752 67.59211848 10.2734375 78.734375 C2.25370738 87.22740067 -5.31253606 91.11524552 -16.4140625 94.546875 C-17.04828125 94.75054688 -17.6825 94.95421875 -18.3359375 95.1640625 C-32.31355894 97.7388875 -45.3122773 94.71747029 -57.171875 87.1015625 C-68.23194526 79.43273329 -76.56184787 67.89724635 -79.4140625 54.546875 C-80.84824956 37.68700764 -79.20471749 24.69700678 -68.5703125 11.046875 C-50.94601691 -9.3870909 -23.01868152 -13.85590538 0 0 Z " fill="#FEFEFD" transform="translate(742.4140625,432.453125)"/>
<path d="M0 0 C10.69029544 10.02423342 15.79649656 21.8320146 16.38623047 36.24072266 C16.64962847 49.77436304 13.1451099 60.16683747 4.9375 71 C4.195 72.03125 3.4525 73.0625 2.6875 74.125 C-7.79035396 85.07912005 -20.87009733 89.84344528 -35.75 90.25 C-50.33274109 90.08025381 -61.91135912 85.21166087 -72.5 75.125 C-82.94223063 64.04788174 -87.54511563 49.98387796 -87.26953125 34.94921875 C-86.49478855 20.17063639 -79.77792916 8.58080629 -69.15625 -1.515625 C-48.49773071 -18.105042 -20.09336921 -16.70375829 0 0 Z " fill="#FEFEFE" transform="translate(1321.0625,438)"/>
</svg>
